<?xml version="1.0" encoding="UTF-8" standalone="no"?>
<!DOCTYPE svg PUBLIC "-//W3C//DTD SVG 1.1//EN"
 "http://www.w3.org/Graphics/SVG/1.1/DTD/svg11.dtd">
<!-- Generated by graphviz version 2.48.0 (20210717.1556)
 -->
<!-- Pages: 1 -->
<svg width="2222pt" height="620pt"
 viewBox="0.00 0.00 2222.16 620.00" xmlns="http://www.w3.org/2000/svg" xmlns:xlink="http://www.w3.org/1999/xlink">
<g id="graph0" class="graph" transform="scale(1 1) rotate(0) translate(4 616)">
<polygon fill="white" stroke="transparent" points="-4,4 -4,-616 2218.16,-616 2218.16,4 -4,4"/>
<!-- [root] module.vpc.aws_internet_gateway.main_gw (expand) -->
<g id="node1" class="node">
<title>[root] module.vpc.aws_internet_gateway.main_gw (expand)</title>
<polygon fill="none" stroke="black" points="1301.23,-252 1038.23,-252 1038.23,-216 1301.23,-216 1301.23,-252"/>
<text text-anchor="middle" x="1169.73" y="-230.3" font-family="Times New Roman,serif" font-size="14.00">module.vpc.aws_internet_gateway.main_gw</text>
</g>
<!-- [root] module.vpc.aws_vpc.main_vpc (expand) -->
<g id="node7" class="node">
<title>[root] module.vpc.aws_vpc.main_vpc (expand)</title>
<polygon fill="none" stroke="black" points="1111.23,-180 916.23,-180 916.23,-144 1111.23,-144 1111.23,-180"/>
<text text-anchor="middle" x="1013.73" y="-158.3" font-family="Times New Roman,serif" font-size="14.00">module.vpc.aws_vpc.main_vpc</text>
</g>
<!-- [root] module.vpc.aws_internet_gateway.main_gw (expand)&#45;&gt;[root] module.vpc.aws_vpc.main_vpc (expand) -->
<g id="edge8" class="edge">
<title>[root] module.vpc.aws_internet_gateway.main_gw (expand)&#45;&gt;[root] module.vpc.aws_vpc.main_vpc (expand)</title>
<path fill="none" stroke="black" d="M1131.57,-215.88C1110.34,-206.35 1083.72,-194.41 1061.16,-184.28"/>
<polygon fill="black" stroke="black" points="1062.33,-180.97 1051.77,-180.07 1059.46,-187.36 1062.33,-180.97"/>
</g>
<!-- [root] module.vpc.aws_route_table.main_rt (expand) -->
<g id="node2" class="node">
<title>[root] module.vpc.aws_route_table.main_rt (expand)</title>
<polygon fill="none" stroke="black" points="1699.73,-324 1475.73,-324 1475.73,-288 1699.73,-288 1699.73,-324"/>
<text text-anchor="middle" x="1587.73" y="-302.3" font-family="Times New Roman,serif" font-size="14.00">module.vpc.aws_route_table.main_rt</text>
</g>
<!-- [root] module.vpc.aws_route_table.main_rt (expand)&#45;&gt;[root] module.vpc.aws_internet_gateway.main_gw (expand) -->
<g id="edge9" class="edge">
<title>[root] module.vpc.aws_route_table.main_rt (expand)&#45;&gt;[root] module.vpc.aws_internet_gateway.main_gw (expand)</title>
<path fill="none" stroke="black" d="M1486.01,-287.97C1424.19,-277.61 1345.19,-264.38 1281.61,-253.74"/>
<polygon fill="black" stroke="black" points="1281.99,-250.25 1271.55,-252.05 1280.83,-257.15 1281.99,-250.25"/>
</g>
<!-- [root] module.vpc.var.route_cidr_block (expand) -->
<g id="node15" class="node">
<title>[root] module.vpc.var.route_cidr_block (expand)</title>
<ellipse fill="none" stroke="black" cx="2023.73" cy="-90" rx="190.37" ry="18"/>
<text text-anchor="middle" x="2023.73" y="-86.3" font-family="Times New Roman,serif" font-size="14.00">[root] module.vpc.var.route_cidr_block (expand)</text>
</g>
<!-- [root] module.vpc.aws_route_table.main_rt (expand)&#45;&gt;[root] module.vpc.var.route_cidr_block (expand) -->
<g id="edge10" class="edge">
<title>[root] module.vpc.aws_route_table.main_rt (expand)&#45;&gt;[root] module.vpc.var.route_cidr_block (expand)</title>
<path fill="none" stroke="black" d="M1687.23,-287.94C1797.74,-266.92 1966.22,-228.03 2008.73,-180 2023.45,-163.37 2026.47,-137.87 2026.23,-118.42"/>
<polygon fill="black" stroke="black" points="2029.73,-118.18 2025.82,-108.33 2022.73,-118.47 2029.73,-118.18"/>
</g>
<!-- [root] module.vpc.aws_route_table_association.subnet_a_ass (expand) -->
<g id="node3" class="node">
<title>[root] module.vpc.aws_route_table_association.subnet_a_ass (expand)</title>
<polygon fill="none" stroke="black" points="1710.23,-396 1383.23,-396 1383.23,-360 1710.23,-360 1710.23,-396"/>
<text text-anchor="middle" x="1546.73" y="-374.3" font-family="Times New Roman,serif" font-size="14.00">module.vpc.aws_route_table_association.subnet_a_ass</text>
</g>
<!-- [root] module.vpc.aws_route_table_association.subnet_a_ass (expand)&#45;&gt;[root] module.vpc.aws_route_table.main_rt (expand) -->
<g id="edge11" class="edge">
<title>[root] module.vpc.aws_route_table_association.subnet_a_ass (expand)&#45;&gt;[root] module.vpc.aws_route_table.main_rt (expand)</title>
<path fill="none" stroke="black" d="M1556.87,-359.7C1561.58,-351.64 1567.29,-341.89 1572.51,-332.98"/>
<polygon fill="black" stroke="black" points="1575.68,-334.5 1577.71,-324.1 1569.64,-330.96 1575.68,-334.5"/>
</g>
<!-- [root] module.vpc.aws_subnet.subnet_a (expand) -->
<g id="node5" class="node">
<title>[root] module.vpc.aws_subnet.subnet_a (expand)</title>
<polygon fill="none" stroke="black" points="673.73,-252 467.73,-252 467.73,-216 673.73,-216 673.73,-252"/>
<text text-anchor="middle" x="570.73" y="-230.3" font-family="Times New Roman,serif" font-size="14.00">module.vpc.aws_subnet.subnet_a</text>
</g>
<!-- [root] module.vpc.aws_route_table_association.subnet_a_ass (expand)&#45;&gt;[root] module.vpc.aws_subnet.subnet_a (expand) -->
<g id="edge12" class="edge">
<title>[root] module.vpc.aws_route_table_association.subnet_a_ass (expand)&#45;&gt;[root] module.vpc.aws_subnet.subnet_a (expand)</title>
<path fill="none" stroke="black" d="M1495.09,-359.94C1430.68,-339.38 1316.84,-305.46 1216.73,-288 1031.9,-255.77 813.8,-243.04 684.17,-238.08"/>
<polygon fill="black" stroke="black" points="683.96,-234.57 673.84,-237.7 683.7,-241.57 683.96,-234.57"/>
</g>
<!-- [root] module.vpc.aws_route_table_association.subnet_b_ass (expand) -->
<g id="node4" class="node">
<title>[root] module.vpc.aws_route_table_association.subnet_b_ass (expand)</title>
<polygon fill="none" stroke="black" points="2057.23,-396 1728.23,-396 1728.23,-360 2057.23,-360 2057.23,-396"/>
<text text-anchor="middle" x="1892.73" y="-374.3" font-family="Times New Roman,serif" font-size="14.00">module.vpc.aws_route_table_association.subnet_b_ass</text>
</g>
<!-- [root] module.vpc.aws_route_table_association.subnet_b_ass (expand)&#45;&gt;[root] module.vpc.aws_route_table.main_rt (expand) -->
<g id="edge13" class="edge">
<title>[root] module.vpc.aws_route_table_association.subnet_b_ass (expand)&#45;&gt;[root] module.vpc.aws_route_table.main_rt (expand)</title>
<path fill="none" stroke="black" d="M1818.51,-359.97C1774.24,-349.8 1717.89,-336.87 1671.96,-326.33"/>
<polygon fill="black" stroke="black" points="1672.55,-322.88 1662.02,-324.05 1670.98,-329.7 1672.55,-322.88"/>
</g>
<!-- [root] module.vpc.aws_subnet.subnet_b (expand) -->
<g id="node6" class="node">
<title>[root] module.vpc.aws_subnet.subnet_b (expand)</title>
<polygon fill="none" stroke="black" points="1527.73,-252 1319.73,-252 1319.73,-216 1527.73,-216 1527.73,-252"/>
<text text-anchor="middle" x="1423.73" y="-230.3" font-family="Times New Roman,serif" font-size="14.00">module.vpc.aws_subnet.subnet_b</text>
</g>
<!-- [root] module.vpc.aws_route_table_association.subnet_b_ass (expand)&#45;&gt;[root] module.vpc.aws_subnet.subnet_b (expand) -->
<g id="edge14" class="edge">
<title>[root] module.vpc.aws_route_table_association.subnet_b_ass (expand)&#45;&gt;[root] module.vpc.aws_subnet.subnet_b (expand)</title>
<path fill="none" stroke="black" d="M1863.79,-359.99C1828.38,-339.89 1766.05,-306.82 1708.73,-288 1653.82,-269.97 1590.81,-257.45 1538.03,-249.13"/>
<polygon fill="black" stroke="black" points="1538.38,-245.64 1527.96,-247.57 1537.31,-252.56 1538.38,-245.64"/>
</g>
<!-- [root] module.vpc.aws_subnet.subnet_a (expand)&#45;&gt;[root] module.vpc.aws_vpc.main_vpc (expand) -->
<g id="edge15" class="edge">
<title>[root] module.vpc.aws_subnet.subnet_a (expand)&#45;&gt;[root] module.vpc.aws_vpc.main_vpc (expand)</title>
<path fill="none" stroke="black" d="M673.76,-216.72C743.44,-205.71 835.29,-191.2 905.96,-180.03"/>
<polygon fill="black" stroke="black" points="906.89,-183.43 916.22,-178.41 905.8,-176.51 906.89,-183.43"/>
</g>
<!-- [root] module.vpc.var.subnet_a_az (expand) -->
<g id="node16" class="node">
<title>[root] module.vpc.var.subnet_a_az (expand)</title>
<ellipse fill="none" stroke="black" cx="503.73" cy="-162" rx="172.77" ry="18"/>
<text text-anchor="middle" x="503.73" y="-158.3" font-family="Times New Roman,serif" font-size="14.00">[root] module.vpc.var.subnet_a_az (expand)</text>
</g>
<!-- [root] module.vpc.aws_subnet.subnet_a (expand)&#45;&gt;[root] module.vpc.var.subnet_a_az (expand) -->
<g id="edge16" class="edge">
<title>[root] module.vpc.aws_subnet.subnet_a (expand)&#45;&gt;[root] module.vpc.var.subnet_a_az (expand)</title>
<path fill="none" stroke="black" d="M554.17,-215.7C546.06,-207.22 536.14,-196.86 527.26,-187.58"/>
<polygon fill="black" stroke="black" points="529.55,-184.91 520.1,-180.1 524.49,-189.75 529.55,-184.91"/>
</g>
<!-- [root] module.vpc.var.subnet_a_cidr_block (expand) -->
<g id="node17" class="node">
<title>[root] module.vpc.var.subnet_a_cidr_block (expand)</title>
<ellipse fill="none" stroke="black" cx="204.73" cy="-90" rx="204.96" ry="18"/>
<text text-anchor="middle" x="204.73" y="-86.3" font-family="Times New Roman,serif" font-size="14.00">[root] module.vpc.var.subnet_a_cidr_block (expand)</text>
</g>
<!-- [root] module.vpc.aws_subnet.subnet_a (expand)&#45;&gt;[root] module.vpc.var.subnet_a_cidr_block (expand) -->
<g id="edge17" class="edge">
<title>[root] module.vpc.aws_subnet.subnet_a (expand)&#45;&gt;[root] module.vpc.var.subnet_a_cidr_block (expand)</title>
<path fill="none" stroke="black" d="M467.55,-221.46C421.44,-213.7 367.33,-200.91 321.73,-180 286.45,-163.82 251.8,-135.46 229.48,-115.1"/>
<polygon fill="black" stroke="black" points="231.83,-112.5 222.12,-108.26 227.07,-117.63 231.83,-112.5"/>
</g>
<!-- [root] module.vpc.aws_subnet.subnet_b (expand)&#45;&gt;[root] module.vpc.aws_vpc.main_vpc (expand) -->
<g id="edge18" class="edge">
<title>[root] module.vpc.aws_subnet.subnet_b (expand)&#45;&gt;[root] module.vpc.aws_vpc.main_vpc (expand)</title>
<path fill="none" stroke="black" d="M1323.96,-215.97C1262.65,-205.5 1184.11,-192.09 1121.39,-181.38"/>
<polygon fill="black" stroke="black" points="1121.92,-177.92 1111.47,-179.69 1120.74,-184.82 1121.92,-177.92"/>
</g>
<!-- [root] module.vpc.var.subnet_b_az (expand) -->
<g id="node18" class="node">
<title>[root] module.vpc.var.subnet_b_az (expand)</title>
<ellipse fill="none" stroke="black" cx="1395.73" cy="-162" rx="174.37" ry="18"/>
<text text-anchor="middle" x="1395.73" y="-158.3" font-family="Times New Roman,serif" font-size="14.00">[root] module.vpc.var.subnet_b_az (expand)</text>
</g>
<!-- [root] module.vpc.aws_subnet.subnet_b (expand)&#45;&gt;[root] module.vpc.var.subnet_b_az (expand) -->
<g id="edge19" class="edge">
<title>[root] module.vpc.aws_subnet.subnet_b (expand)&#45;&gt;[root] module.vpc.var.subnet_b_az (expand)</title>
<path fill="none" stroke="black" d="M1416.81,-215.7C1413.66,-207.81 1409.85,-198.3 1406.35,-189.55"/>
<polygon fill="black" stroke="black" points="1409.54,-188.09 1402.57,-180.1 1403.04,-190.69 1409.54,-188.09"/>
</g>
<!-- [root] module.vpc.var.subnet_b_cidr_block (expand) -->
<g id="node19" class="node">
<title>[root] module.vpc.var.subnet_b_cidr_block (expand)</title>
<ellipse fill="none" stroke="black" cx="1793.73" cy="-162" rx="206.06" ry="18"/>
<text text-anchor="middle" x="1793.73" y="-158.3" font-family="Times New Roman,serif" font-size="14.00">[root] module.vpc.var.subnet_b_cidr_block (expand)</text>
</g>
<!-- [root] module.vpc.aws_subnet.subnet_b (expand)&#45;&gt;[root] module.vpc.var.subnet_b_cidr_block (expand) -->
<g id="edge20" class="edge">
<title>[root] module.vpc.aws_subnet.subnet_b (expand)&#45;&gt;[root] module.vpc.var.subnet_b_cidr_block (expand)</title>
<path fill="none" stroke="black" d="M1513.77,-215.97C1570.68,-205.2 1644.03,-191.32 1701.37,-180.47"/>
<polygon fill="black" stroke="black" points="1702.35,-183.85 1711.52,-178.55 1701.05,-176.97 1702.35,-183.85"/>
</g>
<!-- [root] provider[&quot;registry.terraform.io/hashicorp/aws&quot;] -->
<g id="node8" class="node">
<title>[root] provider[&quot;registry.terraform.io/hashicorp/aws&quot;]</title>
<polygon fill="none" stroke="black" points="1475.73,-108 1218.5,-90 1475.73,-72 1732.96,-90 1475.73,-108"/>
<text text-anchor="middle" x="1475.73" y="-86.3" font-family="Times New Roman,serif" font-size="14.00">provider[&quot;registry.terraform.io/hashicorp/aws&quot;]</text>
</g>
<!-- [root] module.vpc.aws_vpc.main_vpc (expand)&#45;&gt;[root] provider[&quot;registry.terraform.io/hashicorp/aws&quot;] -->
<g id="edge23" class="edge">
<title>[root] module.vpc.aws_vpc.main_vpc (expand)&#45;&gt;[root] provider[&quot;registry.terraform.io/hashicorp/aws&quot;]</title>
<path fill="none" stroke="black" d="M1111.43,-146.2C1193.58,-133.75 1309.93,-116.12 1388.87,-104.16"/>
<polygon fill="black" stroke="black" points="1389.42,-107.62 1398.79,-102.66 1388.38,-100.7 1389.42,-107.62"/>
</g>
<!-- [root] module.vpc.var.environment (expand) -->
<g id="node20" class="node">
<title>[root] module.vpc.var.environment (expand)</title>
<ellipse fill="none" stroke="black" cx="1027.73" cy="-90" rx="172.47" ry="18"/>
<text text-anchor="middle" x="1027.73" y="-86.3" font-family="Times New Roman,serif" font-size="14.00">[root] module.vpc.var.environment (expand)</text>
</g>
<!-- [root] module.vpc.aws_vpc.main_vpc (expand)&#45;&gt;[root] module.vpc.var.environment (expand) -->
<g id="edge21" class="edge">
<title>[root] module.vpc.aws_vpc.main_vpc (expand)&#45;&gt;[root] module.vpc.var.environment (expand)</title>
<path fill="none" stroke="black" d="M1017.19,-143.7C1018.74,-135.98 1020.59,-126.71 1022.31,-118.11"/>
<polygon fill="black" stroke="black" points="1025.78,-118.6 1024.31,-108.1 1018.92,-117.22 1025.78,-118.6"/>
</g>
<!-- [root] module.vpc.var.vpc_cidr_block (expand) -->
<g id="node21" class="node">
<title>[root] module.vpc.var.vpc_cidr_block (expand)</title>
<ellipse fill="none" stroke="black" cx="651.73" cy="-90" rx="185.77" ry="18"/>
<text text-anchor="middle" x="651.73" y="-86.3" font-family="Times New Roman,serif" font-size="14.00">[root] module.vpc.var.vpc_cidr_block (expand)</text>
</g>
<!-- [root] module.vpc.aws_vpc.main_vpc (expand)&#45;&gt;[root] module.vpc.var.vpc_cidr_block (expand) -->
<g id="edge22" class="edge">
<title>[root] module.vpc.aws_vpc.main_vpc (expand)&#45;&gt;[root] module.vpc.var.vpc_cidr_block (expand)</title>
<path fill="none" stroke="black" d="M925.64,-143.97C869.57,-133.12 797.18,-119.13 740.9,-108.24"/>
<polygon fill="black" stroke="black" points="741.43,-104.78 730.95,-106.32 740.1,-111.65 741.43,-104.78"/>
</g>
<!-- [root] meta.count&#45;boundary (EachMode fixup) -->
<g id="node9" class="node">
<title>[root] meta.count&#45;boundary (EachMode fixup)</title>
<ellipse fill="none" stroke="black" cx="1258.73" cy="-522" rx="180.87" ry="18"/>
<text text-anchor="middle" x="1258.73" y="-518.3" font-family="Times New Roman,serif" font-size="14.00">[root] meta.count&#45;boundary (EachMode fixup)</text>
</g>
<!-- [root] module.vpc (close) -->
<g id="node10" class="node">
<title>[root] module.vpc (close)</title>
<ellipse fill="none" stroke="black" cx="1179.73" cy="-450" rx="104.78" ry="18"/>
<text text-anchor="middle" x="1179.73" y="-446.3" font-family="Times New Roman,serif" font-size="14.00">[root] module.vpc (close)</text>
</g>
<!-- [root] meta.count&#45;boundary (EachMode fixup)&#45;&gt;[root] module.vpc (close) -->
<g id="edge1" class="edge">
<title>[root] meta.count&#45;boundary (EachMode fixup)&#45;&gt;[root] module.vpc (close)</title>
<path fill="none" stroke="black" d="M1239.61,-504.05C1229.61,-495.2 1217.22,-484.22 1206.31,-474.55"/>
<polygon fill="black" stroke="black" points="1208.49,-471.8 1198.68,-467.79 1203.84,-477.04 1208.49,-471.8"/>
</g>
<!-- [root] module.vpc (close)&#45;&gt;[root] module.vpc.aws_route_table_association.subnet_a_ass (expand) -->
<g id="edge2" class="edge">
<title>[root] module.vpc (close)&#45;&gt;[root] module.vpc.aws_route_table_association.subnet_a_ass (expand)</title>
<path fill="none" stroke="black" d="M1247.05,-436.16C1303.12,-425.46 1383.8,-410.08 1447.32,-397.96"/>
<polygon fill="black" stroke="black" points="1448.19,-401.36 1457.36,-396.05 1446.88,-394.48 1448.19,-401.36"/>
</g>
<!-- [root] module.vpc (close)&#45;&gt;[root] module.vpc.aws_route_table_association.subnet_b_ass (expand) -->
<g id="edge3" class="edge">
<title>[root] module.vpc (close)&#45;&gt;[root] module.vpc.aws_route_table_association.subnet_b_ass (expand)</title>
<path fill="none" stroke="black" d="M1257.34,-437.85C1273.01,-435.76 1289.39,-433.71 1304.73,-432 1485.5,-411.88 1533.7,-413.01 1717.89,-396.16"/>
<polygon fill="black" stroke="black" points="1718.27,-399.64 1727.91,-395.24 1717.63,-392.67 1718.27,-399.64"/>
</g>
<!-- [root] module.vpc.output.subnet_a_id (expand) -->
<g id="node11" class="node">
<title>[root] module.vpc.output.subnet_a_id (expand)</title>
<ellipse fill="none" stroke="black" cx="570.73" cy="-306" rx="184.67" ry="18"/>
<text text-anchor="middle" x="570.73" y="-302.3" font-family="Times New Roman,serif" font-size="14.00">[root] module.vpc.output.subnet_a_id (expand)</text>
</g>
<!-- [root] module.vpc (close)&#45;&gt;[root] module.vpc.output.subnet_a_id (expand) -->
<g id="edge4" class="edge">
<title>[root] module.vpc (close)&#45;&gt;[root] module.vpc.output.subnet_a_id (expand)</title>
<path fill="none" stroke="black" d="M1077.8,-445.71C921.36,-439.78 636.19,-425.09 599.73,-396 581.32,-381.31 574.46,-354.72 571.97,-334.42"/>
<polygon fill="black" stroke="black" points="575.43,-333.82 571.02,-324.19 568.46,-334.47 575.43,-333.82"/>
</g>
<!-- [root] module.vpc.output.subnet_b_id (expand) -->
<g id="node12" class="node">
<title>[root] module.vpc.output.subnet_b_id (expand)</title>
<ellipse fill="none" stroke="black" cx="1179.73" cy="-378" rx="185.47" ry="18"/>
<text text-anchor="middle" x="1179.73" y="-374.3" font-family="Times New Roman,serif" font-size="14.00">[root] module.vpc.output.subnet_b_id (expand)</text>
</g>
<!-- [root] module.vpc (close)&#45;&gt;[root] module.vpc.output.subnet_b_id (expand) -->
<g id="edge5" class="edge">
<title>[root] module.vpc (close)&#45;&gt;[root] module.vpc.output.subnet_b_id (expand)</title>
<path fill="none" stroke="black" d="M1179.73,-431.7C1179.73,-423.98 1179.73,-414.71 1179.73,-406.11"/>
<polygon fill="black" stroke="black" points="1183.23,-406.1 1179.73,-396.1 1176.23,-406.1 1183.23,-406.1"/>
</g>
<!-- [root] module.vpc.output.vpc_cidr_block (expand) -->
<g id="node13" class="node">
<title>[root] module.vpc.output.vpc_cidr_block (expand)</title>
<ellipse fill="none" stroke="black" cx="1009.73" cy="-306" rx="198.47" ry="18"/>
<text text-anchor="middle" x="1009.73" y="-302.3" font-family="Times New Roman,serif" font-size="14.00">[root] module.vpc.output.vpc_cidr_block (expand)</text>
</g>
<!-- [root] module.vpc (close)&#45;&gt;[root] module.vpc.output.vpc_cidr_block (expand) -->
<g id="edge6" class="edge">
<title>[root] module.vpc (close)&#45;&gt;[root] module.vpc.output.vpc_cidr_block (expand)</title>
<path fill="none" stroke="black" d="M1102.87,-437.71C1055.18,-428.95 1000.3,-415.08 985.73,-396 971.79,-377.74 981.03,-351.99 991.83,-332.88"/>
<polygon fill="black" stroke="black" points="994.97,-334.45 997.17,-324.09 988.98,-330.82 994.97,-334.45"/>
</g>
<!-- [root] module.vpc.output.vpc_id (expand) -->
<g id="node14" class="node">
<title>[root] module.vpc.output.vpc_id (expand)</title>
<ellipse fill="none" stroke="black" cx="773.73" cy="-378" rx="165.17" ry="18"/>
<text text-anchor="middle" x="773.73" y="-374.3" font-family="Times New Roman,serif" font-size="14.00">[root] module.vpc.output.vpc_id (expand)</text>
</g>
<!-- [root] module.vpc (close)&#45;&gt;[root] module.vpc.output.vpc_id (expand) -->
<g id="edge7" class="edge">
<title>[root] module.vpc (close)&#45;&gt;[root] module.vpc.output.vpc_id (expand)</title>
<path fill="none" stroke="black" d="M1108.55,-436.73C1041.76,-425.21 941.43,-407.91 868.01,-395.25"/>
<polygon fill="black" stroke="black" points="868.28,-391.75 857.84,-393.5 867.1,-398.65 868.28,-391.75"/>
</g>
<!-- [root] module.vpc.output.subnet_a_id (expand)&#45;&gt;[root] module.vpc.aws_subnet.subnet_a (expand) -->
<g id="edge24" class="edge">
<title>[root] module.vpc.output.subnet_a_id (expand)&#45;&gt;[root] module.vpc.aws_subnet.subnet_a (expand)</title>
<path fill="none" stroke="black" d="M570.73,-287.7C570.73,-279.98 570.73,-270.71 570.73,-262.11"/>
<polygon fill="black" stroke="black" points="574.23,-262.1 570.73,-252.1 567.23,-262.1 574.23,-262.1"/>
</g>
<!-- [root] module.vpc.output.subnet_b_id (expand)&#45;&gt;[root] module.vpc.aws_subnet.subnet_b (expand) -->
<g id="edge25" class="edge">
<title>[root] module.vpc.output.subnet_b_id (expand)&#45;&gt;[root] module.vpc.aws_subnet.subnet_b (expand)</title>
<path fill="none" stroke="black" d="M1208.68,-360.15C1252.77,-334.49 1336.78,-285.6 1385.73,-257.12"/>
<polygon fill="black" stroke="black" points="1387.56,-260.1 1394.44,-252.05 1384.04,-254.05 1387.56,-260.1"/>
</g>
<!-- [root] module.vpc.output.vpc_cidr_block (expand)&#45;&gt;[root] module.vpc.aws_vpc.main_vpc (expand) -->
<g id="edge26" class="edge">
<title>[root] module.vpc.output.vpc_cidr_block (expand)&#45;&gt;[root] module.vpc.aws_vpc.main_vpc (expand)</title>
<path fill="none" stroke="black" d="M1010.21,-287.87C1010.9,-263.67 1012.15,-219.21 1012.96,-190.39"/>
<polygon fill="black" stroke="black" points="1016.46,-190.28 1013.25,-180.19 1009.47,-190.09 1016.46,-190.28"/>
</g>
<!-- [root] module.vpc.output.vpc_id (expand)&#45;&gt;[root] module.vpc.aws_vpc.main_vpc (expand) -->
<g id="edge27" class="edge">
<title>[root] module.vpc.output.vpc_id (expand)&#45;&gt;[root] module.vpc.aws_vpc.main_vpc (expand)</title>
<path fill="none" stroke="black" d="M775.66,-359.89C778.59,-340.6 785.76,-309.18 802.73,-288 842.58,-238.26 907.97,-203.95 955.41,-184.03"/>
<polygon fill="black" stroke="black" points="957.02,-187.16 964.94,-180.12 954.36,-180.68 957.02,-187.16"/>
</g>
<!-- [root] module.vpc (expand) -->
<g id="node22" class="node">
<title>[root] module.vpc (expand)</title>
<ellipse fill="none" stroke="black" cx="1027.73" cy="-18" rx="111.58" ry="18"/>
<text text-anchor="middle" x="1027.73" y="-14.3" font-family="Times New Roman,serif" font-size="14.00">[root] module.vpc (expand)</text>
</g>
<!-- [root] module.vpc.var.route_cidr_block (expand)&#45;&gt;[root] module.vpc (expand) -->
<g id="edge29" class="edge">
<title>[root] module.vpc.var.route_cidr_block (expand)&#45;&gt;[root] module.vpc (expand)</title>
<path fill="none" stroke="black" d="M1885.57,-77.61C1861.3,-75.68 1836.28,-73.74 1812.73,-72 1573.21,-54.27 1292.38,-35.89 1139.99,-26.12"/>
<polygon fill="black" stroke="black" points="1139.89,-22.61 1129.69,-25.46 1139.45,-29.59 1139.89,-22.61"/>
</g>
<!-- [root] module.vpc.var.subnet_a_az (expand)&#45;&gt;[root] module.vpc (expand) -->
<g id="edge30" class="edge">
<title>[root] module.vpc.var.subnet_a_az (expand)&#45;&gt;[root] module.vpc (expand)</title>
<path fill="none" stroke="black" d="M483.51,-144.03C463.06,-124.87 437.07,-93.57 456.73,-72 486.47,-39.38 749.06,-26.52 907.6,-21.7"/>
<polygon fill="black" stroke="black" points="907.99,-25.19 917.89,-21.39 907.79,-18.19 907.99,-25.19"/>
</g>
<!-- [root] module.vpc.var.subnet_a_cidr_block (expand)&#45;&gt;[root] module.vpc (expand) -->
<g id="edge31" class="edge">
<title>[root] module.vpc.var.subnet_a_cidr_block (expand)&#45;&gt;[root] module.vpc (expand)</title>
<path fill="none" stroke="black" d="M346.21,-76.97C509.47,-63.08 774.24,-40.56 921.09,-28.07"/>
<polygon fill="black" stroke="black" points="921.79,-31.52 931.45,-27.19 921.19,-24.55 921.79,-31.52"/>
</g>
<!-- [root] module.vpc.var.subnet_b_az (expand)&#45;&gt;[root] module.vpc (expand) -->
<g id="edge32" class="edge">
<title>[root] module.vpc.var.subnet_b_az (expand)&#45;&gt;[root] module.vpc (expand)</title>
<path fill="none" stroke="black" d="M1522.58,-149.57C1615.26,-139.91 1727.18,-124.95 1741.73,-108 1752.15,-95.86 1752.62,-83.72 1741.73,-72 1702.39,-29.63 1343.13,-20.85 1149.72,-19.22"/>
<polygon fill="black" stroke="black" points="1149.53,-15.72 1139.51,-19.14 1149.48,-22.72 1149.53,-15.72"/>
</g>
<!-- [root] module.vpc.var.subnet_b_cidr_block (expand)&#45;&gt;[root] module.vpc (expand) -->
<g id="edge33" class="edge">
<title>[root] module.vpc.var.subnet_b_cidr_block (expand)&#45;&gt;[root] module.vpc (expand)</title>
<path fill="none" stroke="black" d="M1792.28,-143.64C1789.54,-122.88 1781.6,-88.82 1758.73,-72 1710.85,-36.77 1343.34,-24.73 1148.37,-20.8"/>
<polygon fill="black" stroke="black" points="1148.42,-17.3 1138.35,-20.6 1148.28,-24.3 1148.42,-17.3"/>
</g>
<!-- [root] module.vpc.var.environment (expand)&#45;&gt;[root] module.vpc (expand) -->
<g id="edge28" class="edge">
<title>[root] module.vpc.var.environment (expand)&#45;&gt;[root] module.vpc (expand)</title>
<path fill="none" stroke="black" d="M1027.73,-71.7C1027.73,-63.98 1027.73,-54.71 1027.73,-46.11"/>
<polygon fill="black" stroke="black" points="1031.23,-46.1 1027.73,-36.1 1024.23,-46.1 1031.23,-46.1"/>
</g>
<!-- [root] module.vpc.var.vpc_cidr_block (expand)&#45;&gt;[root] module.vpc (expand) -->
<g id="edge34" class="edge">
<title>[root] module.vpc.var.vpc_cidr_block (expand)&#45;&gt;[root] module.vpc (expand)</title>
<path fill="none" stroke="black" d="M733.32,-73.81C796.87,-61.98 884.62,-45.64 947.76,-33.89"/>
<polygon fill="black" stroke="black" points="948.49,-37.31 957.68,-32.04 947.21,-30.43 948.49,-37.31"/>
</g>
<!-- [root] provider[&quot;registry.terraform.io/hashicorp/aws&quot;] (close) -->
<g id="node23" class="node">
<title>[root] provider[&quot;registry.terraform.io/hashicorp/aws&quot;] (close)</title>
<ellipse fill="none" stroke="black" cx="1546.73" cy="-450" rx="232.86" ry="18"/>
<text text-anchor="middle" x="1546.73" y="-446.3" font-family="Times New Roman,serif" font-size="14.00">[root] provider[&quot;registry.terraform.io/hashicorp/aws&quot;] (close)</text>
</g>
<!-- [root] provider[&quot;registry.terraform.io/hashicorp/aws&quot;] (close)&#45;&gt;[root] module.vpc.aws_route_table_association.subnet_a_ass (expand) -->
<g id="edge35" class="edge">
<title>[root] provider[&quot;registry.terraform.io/hashicorp/aws&quot;] (close)&#45;&gt;[root] module.vpc.aws_route_table_association.subnet_a_ass (expand)</title>
<path fill="none" stroke="black" d="M1546.73,-431.7C1546.73,-423.98 1546.73,-414.71 1546.73,-406.11"/>
<polygon fill="black" stroke="black" points="1550.23,-406.1 1546.73,-396.1 1543.23,-406.1 1550.23,-406.1"/>
</g>
<!-- [root] provider[&quot;registry.terraform.io/hashicorp/aws&quot;] (close)&#45;&gt;[root] module.vpc.aws_route_table_association.subnet_b_ass (expand) -->
<g id="edge36" class="edge">
<title>[root] provider[&quot;registry.terraform.io/hashicorp/aws&quot;] (close)&#45;&gt;[root] module.vpc.aws_route_table_association.subnet_b_ass (expand)</title>
<path fill="none" stroke="black" d="M1625.68,-433.03C1677.12,-422.62 1744.52,-408.99 1798.73,-398.02"/>
<polygon fill="black" stroke="black" points="1799.58,-401.42 1808.69,-396 1798.19,-394.56 1799.58,-401.42"/>
</g>
<!-- [root] root -->
<g id="node24" class="node">
<title>[root] root</title>
<ellipse fill="none" stroke="black" cx="1362.73" cy="-594" rx="49.29" ry="18"/>
<text text-anchor="middle" x="1362.73" y="-590.3" font-family="Times New Roman,serif" font-size="14.00">[root] root</text>
</g>
<!-- [root] root&#45;&gt;[root] meta.count&#45;boundary (EachMode fixup) -->
<g id="edge37" class="edge">
<title>[root] root&#45;&gt;[root] meta.count&#45;boundary (EachMode fixup)</title>
<path fill="none" stroke="black" d="M1340.17,-577.81C1326.15,-568.38 1307.89,-556.09 1292.21,-545.53"/>
<polygon fill="black" stroke="black" points="1294.06,-542.56 1283.81,-539.88 1290.15,-548.36 1294.06,-542.56"/>
</g>
<!-- [root] root&#45;&gt;[root] provider[&quot;registry.terraform.io/hashicorp/aws&quot;] (close) -->
<g id="edge38" class="edge">
<title>[root] root&#45;&gt;[root] provider[&quot;registry.terraform.io/hashicorp/aws&quot;] (close)</title>
<path fill="none" stroke="black" d="M1388.76,-578.65C1406.25,-568.6 1429.53,-554.44 1448.73,-540 1475.49,-519.88 1503.52,-493.84 1522.72,-475.13"/>
<polygon fill="black" stroke="black" points="1525.2,-477.61 1529.88,-468.1 1520.29,-472.62 1525.2,-477.61"/>
</g>
</g>
</svg>
